# xmcd
#
# Track frame offsets: 
#        150
#        14290
#        28000
#        44062
#        57612
#        73215
#        88700
#        100567
#        113675
#        136532
#
# Disc length: 2060 seconds
#
# Revision: 0
# Processed by: cddbd v1.5.1PL0 Copyright (c) Steve Scherf et al.
# Submitted via: ExactAudioCopy v0.95b1
#
DISCID=83080a0a
DTITLE=Asleep At The Wheel - Asleep At The Wheel
DYEAR=1988
DGENRE=Country
TTITLE0=Deep Water
TTITLE1=Cool as a Breeze
TTITLE2=Liar's Moon
TTITLE3=Your Red Wagon
TTITLE4=The Way We Make a Broken Heart
TTITLE5=You Wanna Give Me a Lift
TTITLE6=Write Your Own Song
TTITLE7=Across the Alley From the Alamo
TTITLE8=Lonely Avenue Revisited
TTITLE9=Midnight in Memphis
EXTD=
EXTT0=
EXTT1=
EXTT2=
EXTT3=
EXTT4=
EXTT5=
EXTT6=
EXTT7=
EXTT8=
EXTT9=
PLAYORDER=
